<?xml version="1.0" encoding="UTF-8" standalone="no"?>
<svg
   xmlns:dc="http://purl.org/dc/elements/1.1/"
   xmlns:cc="http://creativecommons.org/ns#"
   xmlns:rdf="http://www.w3.org/1999/02/22-rdf-syntax-ns#"
   xmlns:svg="http://www.w3.org/2000/svg"
   xmlns="http://www.w3.org/2000/svg"
   xmlns:sodipodi="http://sodipodi.sourceforge.net/DTD/sodipodi-0.dtd"
   xmlns:inkscape="http://www.inkscape.org/namespaces/inkscape"
   viewBox="0 0 299.99999 102.75041"
   width="300"
   height="102.75041"
   version="1.1"
   id="svg14"
   sodipodi:docname="Google_2015_logo.svg"
   inkscape:version="0.92.1 r15371">
  <metadata
     id="metadata20">
    <rdf:RDF>
      <cc:Work
         rdf:about="">
        <dc:format>image/svg+xml</dc:format>
        <dc:type
           rdf:resource="http://purl.org/dc/dcmitype/StillImage" />
        <dc:title></dc:title>
      </cc:Work>
    </rdf:RDF>
  </metadata>
  <defs
     id="defs18" />
  <sodipodi:namedview
     pagecolor="#ffffff"
     bordercolor="#666666"
     borderopacity="1"
     objecttolerance="10"
     gridtolerance="10"
     guidetolerance="10"
     inkscape:pageopacity="0"
     inkscape:pageshadow="2"
     inkscape:window-width="1366"
     inkscape:window-height="705"
     id="namedview16"
     showgrid="false"
     showguides="true"
     inkscape:guide-bbox="true"
     inkscape:zoom="1.0441176"
     inkscape:cx="80.469278"
     inkscape:cy="51.950234"
     inkscape:window-x="-8"
     inkscape:window-y="-8"
     inkscape:window-maximized="1"
     inkscape:current-layer="svg14"
     fit-margin-top="0"
     fit-margin-left="0"
     fit-margin-right="0"
     fit-margin-bottom="0" />
  <g
     id="g4567"
     transform="matrix(1.1125946,0,0,1.1125946,-0.40053406,-0.52291946)">
    <path
       id="path2"
       d="m 115.75,47.18 c 0,12.77 -9.99,22.18 -22.25,22.18 C 81.24,69.36 71.25,59.95 71.25,47.18 71.25,34.32 81.24,25 93.5,25 c 12.26,0 22.25,9.32 22.25,22.18 z m -9.74,0 c 0,-7.98 -5.79,-13.44 -12.51,-13.44 -6.72,0 -12.51,5.46 -12.51,13.44 0,7.9 5.79,13.44 12.51,13.44 6.72,0 12.51,-5.55 12.51,-13.44 z"
       inkscape:connector-curvature="0"
       style="fill:#ea4335" />
    <path
       id="path4"
       d="m 163.75,47.18 c 0,12.77 -9.99,22.18 -22.25,22.18 -12.26,0 -22.25,-9.41 -22.25,-22.18 0,-12.85 9.99,-22.18 22.25,-22.18 12.26,0 22.25,9.32 22.25,22.18 z m -9.74,0 c 0,-7.98 -5.79,-13.44 -12.51,-13.44 -6.72,0 -12.51,5.46 -12.51,13.44 0,7.9 5.79,13.44 12.51,13.44 6.72,0 12.51,-5.55 12.51,-13.44 z"
       inkscape:connector-curvature="0"
       style="fill:#fbbc05" />
    <path
       id="path6"
       d="m 209.75,26.34 v 39.82 c 0,16.38 -9.66,23.07 -21.08,23.07 -10.75,0 -17.22,-7.19 -19.66,-13.07 l 8.48,-3.53 c 1.51,3.61 5.21,7.87 11.17,7.87 7.31,0 11.84,-4.51 11.84,-13 v -3.19 h -0.34 c -2.18,2.69 -6.38,5.04 -11.68,5.04 -11.09,0 -21.25,-9.66 -21.25,-22.09 0,-12.52 10.16,-22.26 21.25,-22.26 5.29,0 9.49,2.35 11.68,4.96 h 0.34 v -3.61 h 9.25 z m -8.56,20.92 c 0,-7.81 -5.21,-13.52 -11.84,-13.52 -6.72,0 -12.35,5.71 -12.35,13.52 0,7.73 5.63,13.36 12.35,13.36 6.63,0 11.84,-5.63 11.84,-13.36 z"
       inkscape:connector-curvature="0"
       style="fill:#4285f4" />
    <path
       id="path8"
       d="m 225,3 v 65 h -9.5 V 3 Z"
       inkscape:connector-curvature="0"
       style="fill:#34a853" />
    <path
       id="path10"
       d="m 262.02,54.48 7.56,5.04 c -2.44,3.61 -8.32,9.83 -18.48,9.83 -12.6,0 -22.01,-9.74 -22.01,-22.18 0,-13.19 9.49,-22.18 20.92,-22.18 11.51,0 17.14,9.16 18.98,14.11 L 270,41.62 240.35,53.9 c 2.27,4.45 5.8,6.72 10.75,6.72 4.96,0 8.4,-2.44 10.92,-6.14 z m -23.27,-7.98 19.82,-8.23 c -1.09,-2.77 -4.37,-4.7 -8.23,-4.7 -4.95,0 -11.84,4.37 -11.59,12.93 z"
       inkscape:connector-curvature="0"
       style="fill:#ea4335" />
    <path
       id="path12"
       d="M 35.29,41.41 V 32 H 67 c 0.31,1.64 0.47,3.58 0.47,5.68 0,7.06 -1.93,15.79 -8.15,22.01 -6.05,6.3 -13.78,9.66 -24.02,9.66 C 16.32,69.35 0.36,53.89 0.36,34.91 0.36,15.93 16.32,0.47 35.3,0.47 c 10.5,0 17.98,4.12 23.6,9.49 L 52.26,16.6 C 48.23,12.82 42.77,9.88 35.29,9.88 c -13.86,0 -24.7,11.17 -24.7,25.03 0,13.86 10.84,25.03 24.7,25.03 8.99,0 14.11,-3.61 17.39,-6.89 2.66,-2.66 4.41,-6.46 5.1,-11.65 z"
       inkscape:connector-curvature="0"
       style="fill:#4285f4" />
  </g>
  <g
     aria-label="Images"
     style="font-style:normal;font-weight:normal;font-size:16.64684868px;line-height:27.74474716px;font-family:sans-serif;letter-spacing:0px;word-spacing:0px;fill:#4285f4;fill-opacity:1;stroke:none;stroke-width:1.10978985px;stroke-linecap:butt;stroke-linejoin:miter;stroke-opacity:1"
     id="text4499"
     transform="matrix(1.1125946,0,0,1.1125946,-0.40053406,-0.52291946)">
    <path
       d="M 215.84675,89.318748 V 77.402596 h 1.5769 v 11.916152 z"
       style="font-style:normal;font-variant:normal;font-weight:normal;font-stretch:normal;font-family:Arial;-inkscape-font-specification:Arial;fill:#4285f4;fill-opacity:1;stroke-width:1.10978985px"
       id="path4569"
       inkscape:connector-curvature="0" />
    <path
       d="m 220.00846,89.318748 v -8.632301 h 1.30866 v 1.211123 q 0.40642,-0.634011 1.08107,-1.016043 0.67466,-0.39016 1.53626,-0.39016 0.95915,0 1.56877,0.398289 0.61776,0.398289 0.86973,1.113583 1.02418,-1.511872 2.6661,-1.511872 1.28428,0 1.97519,0.715294 0.69091,0.707166 0.69091,2.186525 v 5.925562 h -1.45498 v -5.437862 q 0,-0.877861 -0.14631,-1.259893 -0.13818,-0.390161 -0.51208,-0.625883 -0.3739,-0.235722 -0.87786,-0.235722 -0.91038,0 -1.51187,0.609626 -0.6015,0.601498 -0.6015,1.934546 v 5.015188 h -1.4631 v -5.608557 q 0,-0.975401 -0.35765,-1.463102 -0.35765,-0.487701 -1.17048,-0.487701 -0.61776,0 -1.1461,0.325134 -0.52021,0.325134 -0.75593,0.951016 -0.23573,0.625883 -0.23573,1.804493 v 4.478717 z"
       style="font-style:normal;font-variant:normal;font-weight:normal;font-stretch:normal;font-family:Arial;-inkscape-font-specification:Arial;fill:#4285f4;fill-opacity:1;stroke-width:1.10978985px"
       id="path4571"
       inkscape:connector-curvature="0" />
    <path
       d="m 239.55713,88.253935 q -0.81284,0.69091 -1.56877,0.975402 -0.74781,0.284492 -1.60942,0.284492 -1.42246,0 -2.18652,-0.69091 -0.76406,-0.699037 -0.76406,-1.780107 0,-0.634011 0.28449,-1.154225 0.29262,-0.528342 0.75593,-0.845348 0.47145,-0.317005 1.05669,-0.479572 0.4308,-0.113797 1.30053,-0.219465 1.77198,-0.211337 2.6092,-0.503957 0.008,-0.300749 0.008,-0.382033 0,-0.894117 -0.41454,-1.259893 -0.56086,-0.495829 -1.66632,-0.495829 -1.0323,0 -1.52812,0.365776 -0.4877,0.357647 -0.72343,1.27615 l -1.43059,-0.195081 q 0.19508,-0.918503 0.64214,-1.479358 0.44706,-0.568984 1.29241,-0.869733 0.84535,-0.308877 1.95893,-0.308877 1.10546,0 1.79637,0.260107 0.6909,0.260107 1.01604,0.658396 0.32513,0.39016 0.45519,0.991658 0.0731,0.373903 0.0731,1.349305 v 1.950802 q 0,2.040215 0.0894,2.584814 0.0975,0.53647 0.37391,1.032299 h -1.52813 q -0.2276,-0.455187 -0.29262,-1.064813 z m -0.12193,-3.267594 q -0.79658,0.325134 -2.38973,0.552727 -0.90225,0.130054 -1.27615,0.292621 -0.3739,0.162567 -0.57711,0.479572 -0.20321,0.308877 -0.20321,0.690909 0,0.585241 0.43893,0.975402 0.44706,0.39016 1.30053,0.39016 0.84535,0 1.50375,-0.365775 0.65839,-0.373904 0.96727,-1.016043 0.23572,-0.495829 0.23572,-1.463102 z"
       style="font-style:normal;font-variant:normal;font-weight:normal;font-stretch:normal;font-family:Arial;-inkscape-font-specification:Arial;fill:#4285f4;fill-opacity:1;stroke-width:1.10978985px"
       id="path4573"
       inkscape:connector-curvature="0" />
    <path
       d="m 242.92226,90.034043 1.42246,0.211337 q 0.0894,0.658396 0.49583,0.959144 0.5446,0.406418 1.48749,0.406418 1.01604,0 1.56877,-0.406418 0.55273,-0.406417 0.74781,-1.137968 0.11379,-0.447059 0.10567,-1.877647 -0.95915,1.129839 -2.38974,1.129839 -1.7801,0 -2.75551,-1.284278 -0.9754,-1.284278 -0.9754,-3.080642 0,-1.235509 0.44706,-2.275937 0.44706,-1.048556 1.29241,-1.61754 0.85347,-0.568984 1.99957,-0.568984 1.52813,0 2.51979,1.235508 v -1.040428 h 1.3493 v 7.46182 q 0,2.015829 -0.41454,2.853049 -0.40642,0.845347 -1.30054,1.333048 -0.88599,0.487701 -2.18652,0.487701 -1.54439,0 -2.4954,-0.699038 -0.95102,-0.690909 -0.91851,-2.088984 z m 1.21113,-5.185884 q 0,1.698824 0.67465,2.479145 0.67465,0.780321 1.69069,0.780321 1.00792,0 1.6907,-0.772192 0.68278,-0.780322 0.68278,-2.438504 0,-1.585027 -0.70716,-2.389733 -0.69904,-0.804706 -1.6907,-0.804706 -0.9754,0 -1.65818,0.796578 -0.68278,0.788449 -0.68278,2.349091 z"
       style="font-style:normal;font-variant:normal;font-weight:normal;font-stretch:normal;font-family:Arial;-inkscape-font-specification:Arial;fill:#4285f4;fill-opacity:1;stroke-width:1.10978985px"
       id="path4575"
       inkscape:connector-curvature="0" />
    <path
       d="m 258.36612,86.538855 1.51187,0.186952 q -0.35765,1.32492 -1.32492,2.056471 -0.96727,0.731551 -2.47102,0.731551 -1.8939,0 -3.00748,-1.162353 -1.10546,-1.170482 -1.10546,-3.275723 0,-2.178396 1.12171,-3.381391 1.12171,-1.202995 2.90995,-1.202995 1.73134,0 2.82866,1.17861 1.09733,1.17861 1.09733,3.316364 0,0.130054 -0.008,0.390161 h -6.43765 q 0.0813,1.42246 0.80471,2.178396 0.72342,0.755936 1.80449,0.755936 0.80471,0 1.37369,-0.422674 0.56899,-0.422674 0.90225,-1.349305 z m -4.80385,-2.365348 h 4.8201 q -0.0975,-1.089198 -0.55272,-1.633797 -0.69904,-0.845348 -1.81262,-0.845348 -1.00792,0 -1.69883,0.674652 -0.68278,0.674653 -0.75593,1.804493 z"
       style="font-style:normal;font-variant:normal;font-weight:normal;font-stretch:normal;font-family:Arial;-inkscape-font-specification:Arial;fill:#4285f4;fill-opacity:1;stroke-width:1.10978985px"
       id="path4577"
       inkscape:connector-curvature="0" />
    <path
       d="m 261.13788,86.742063 1.44685,-0.227593 q 0.12192,0.869733 0.67465,1.333048 0.56086,0.463316 1.56064,0.463316 1.00792,0 1.49562,-0.406417 0.4877,-0.414546 0.4877,-0.967273 0,-0.495829 -0.4308,-0.780321 -0.30075,-0.195081 -1.49562,-0.495829 -1.60941,-0.406418 -2.23529,-0.699038 -0.61776,-0.300749 -0.94289,-0.820963 -0.31701,-0.528342 -0.31701,-1.162353 0,-0.577112 0.26011,-1.064813 0.26824,-0.495829 0.72342,-0.820963 0.34139,-0.251978 0.92663,-0.422674 0.59337,-0.178823 1.26803,-0.178823 1.01604,0 1.7801,0.29262 0.7722,0.292621 1.13797,0.796578 0.36578,0.495829 0.50396,1.333048 l -1.43059,0.195081 q -0.0975,-0.666525 -0.56898,-1.040428 -0.46332,-0.373904 -1.3168,-0.373904 -1.00791,0 -1.43871,0.333262 -0.4308,0.333262 -0.4308,0.780321 0,0.284492 0.17882,0.512086 0.17882,0.235722 0.56085,0.39016 0.21947,0.08128 1.29241,0.373904 1.55251,0.414545 2.16214,0.682781 0.61775,0.260107 0.96727,0.764064 0.34952,0.503957 0.34952,1.251765 0,0.731551 -0.4308,1.381819 -0.42267,0.642139 -1.22738,0.999786 -0.80471,0.349519 -1.82075,0.349519 -1.68257,0 -2.56856,-0.699038 -0.87786,-0.699037 -1.12171,-2.072728 z"
       style="font-style:normal;font-variant:normal;font-weight:normal;font-stretch:normal;font-family:Arial;-inkscape-font-specification:Arial;fill:#4285f4;fill-opacity:1;stroke-width:1.10978985px"
       id="path4579"
       inkscape:connector-curvature="0" />
  </g>
</svg>
